<svg xmlns="http://www.w3.org/2000/svg" version="1.1" xmlns:xlink="http://www.w3.org/1999/xlink" xmlns:svgjs="http://svgjs.com/svgjs" width="1440" height="560" preserveAspectRatio="none" viewBox="0 0 1440 560"><g mask="url(&quot;#SvgjsMask1012&quot;)" fill="none"><circle r="5.575" cx="851.135" cy="289.125" filter="url(#SvgjsFilter1013)" fill="rgba(235, 245, 255, 0.58)"></circle><circle r="7.79" cx="833.9499999999999" cy="12.07" filter="url(#SvgjsFilter1013)" fill="rgba(235, 245, 255, 0.58)"></circle><circle r="6.675" cx="1005.5949999999999" cy="158.82500000000002" filter="url(#SvgjsFilter1013)" fill="rgba(235, 245, 255, 0.58)"></circle><circle r="7.365" cx="606.075" cy="407.15500000000003" filter="url(#SvgjsFilter1013)" fill="rgba(235, 245, 255, 0.58)"></circle><circle r="4.71" cx="95.89" cy="557.09" filter="url(#SvgjsFilter1013)" fill="rgba(235, 245, 255, 0.58)"></circle><circle r="4.785" cx="92.365" cy="81.255" filter="url(#SvgjsFilter1013)" fill="rgba(235, 245, 255, 0.58)"></circle><circle r="5.63" cx="1366.1100000000001" cy="487.24" filter="url(#SvgjsFilter1013)" fill="rgba(235, 245, 255, 0.58)"></circle><circle r="8.3" cx="308.79" cy="197.09" filter="url(#SvgjsFilter1013)" fill="rgba(235, 245, 255, 0.58)"></circle><circle r="7.955" cx="516.245" cy="496.54499999999996" filter="url(#SvgjsFilter1013)" fill="rgba(235, 245, 255, 0.58)"></circle><circle r="6.265" cx="439.115" cy="228.73499999999999" filter="url(#SvgjsFilter1013)" fill="rgba(235, 245, 255, 0.58)"></circle><circle r="8.395" cx="1096.675" cy="74.535" filter="url(#SvgjsFilter1013)" fill="rgba(235, 245, 255, 0.58)"></circle><circle r="6.19" cx="952.23" cy="458.44" filter="url(#SvgjsFilter1013)" fill="rgba(235, 245, 255, 0.58)"></circle><circle r="7.605" cx="747.505" cy="51.315" filter="url(#SvgjsFilter1013)" fill="rgba(235, 245, 255, 0.58)"></circle><circle r="6.62" cx="708.09" cy="283.63" filter="url(#SvgjsFilter1013)" fill="rgba(235, 245, 255, 0.58)"></circle><circle r="5.9" cx="716.66" cy="383.82" filter="url(#SvgjsFilter1013)" fill="rgba(235, 245, 255, 0.58)"></circle><circle r="6.76" cx="999.13" cy="555.5699999999999" filter="url(#SvgjsFilter1013)" fill="rgba(235, 245, 255, 0.58)"></circle><circle r="8.305" cx="994.155" cy="387.315" filter="url(#SvgjsFilter1013)" fill="rgba(235, 245, 255, 0.58)"></circle><circle r="5.75" cx="1319.67" cy="162.1" filter="url(#SvgjsFilter1013)" fill="rgba(235, 245, 255, 0.58)"></circle><circle r="7.56" cx="705.04" cy="419.94" filter="url(#SvgjsFilter1013)" fill="rgba(235, 245, 255, 0.58)"></circle><circle r="8.825" cx="874.2650000000001" cy="435.22499999999997" filter="url(#SvgjsFilter1013)" fill="rgba(235, 245, 255, 0.58)"></circle><path d="M1163.6 143.3L1166.5 132.5 1171.5 137.1C1172 137.6 1173 137.7 1173.8 137.1 1174.3 136.3 1174.3 135.3 1173.5 134.9L1167.5 128.9 1169.4 120.4 1181.9 132.8C1182.7 133.3 1183.7 133.3 1184.3 132.8 1185 132 1185.1 131 1184.3 130.5L1170.4 116.8 1173.7 103.9 1183.4 115.8 1185.4 100.6 1195 109.8 1190.4 128.8C1190.1 128.9 1190.2 129.2 1190.3 129.5 1190.5 130.1 1190.9 130.6 1191.6 130.7 1192.4 130.9 1193.2 130.3 1193.6 129.5L1197.8 112.4 1203.9 118.7 1201.9 126.9C1201.6 127.3 1201.7 127.6 1201.8 127.9 1201.9 128.2 1202.4 128.7 1203.1 128.8 1203.8 129 1204.6 128.4 1204.8 127.7L1206.6 121.2 1214.7 128.9C1215.3 129.7 1216.2 129.5 1217.1 128.9 1217.6 128.4 1217.6 127.4 1216.8 126.6L1208.9 118.9 1215.4 117.1C1216.3 116.8 1216.7 115.7 1216.5 115.1 1216.2 114.2 1215.4 113.7 1214.5 114L1206.2 116.3 1200.1 110.1 1216.7 105.4C1217.7 105.1 1218.1 104.3 1217.8 103.4 1217.7 102.8 1216.8 102 1215.9 102.3L1197.4 107.5 1187.8 98.3 1202.7 95.7 1190.8 86.4 1203.7 82.8 1217.5 96.2C1218.3 96.9 1219.3 96.7 1219.8 96.2 1220.3 95.7 1220.4 94.7 1219.8 93.9L1207.1 81.8 1215.4 79.5 1221.7 85.3C1222.3 86.2 1223.3 86.2 1224 85.3 1224.6 84.9 1224.6 83.9 1223.7 83.1L1219.1 78.4 1229.9 75.4C1230.8 75.1 1231.2 74.3 1231 73.4S1229.9 72 1229 72.3L1218.2 75.4 1219.7 68.9C1220.1 67.8 1219.5 67 1218.8 66.9 1217.7 66.5 1216.9 67.1 1216.8 68.1L1214.5 76.4 1206.2 78.7 1210.7 61.8C1210.8 60.8 1210.2 60 1209.5 59.9 1208.4 59.5 1207.6 60.1 1207.5 61.1L1202.8 79.7 1189.9 83.4 1195.2 69.2 1181.2 74.9 1184.5 61.9 1203 56.7C1203.9 56.5 1204.3 55.4 1204.1 54.7 1203.8 53.8 1203 53.4 1202.1 53.6L1185.2 58.4 1187.4 49.8 1195.7 47.5C1196.6 47.2 1197.1 46.4 1196.8 45.5 1196.6 44.9 1195.8 44.1 1194.8 44.4L1188.4 46.2 1191 35.5C1191.4 34.4 1190.8 33.6 1189.8 33.5 1189.1 33.4 1188.1 33.6 1188.1 34.7L1185.2 45.5 1180.2 40.9C1179.7 40.3 1178.7 40.3 1178.2 40.8 1177.7 41.3 1177.5 42 1177.6 42.3 1177.7 42.6 1177.8 42.9 1178.2 43.1L1184.2 49.1 1182.3 57.6 1169.8 45.1C1169 44.7 1168 44.7 1167.5 45.1 1166.9 45.6 1166.8 46.3 1167 46.9 1167.1 47.3 1167.1 47.3 1167.4 47.5L1181.3 61.2 1178 74.1 1168.3 62.2 1166.3 77.4 1156.7 68.1 1161.3 49.2C1161.4 48.5 1161.2 47.6 1160.1 47.2 1159.4 47.1 1158.5 47.7 1158.1 48.5L1153.9 65.6 1147.9 59.3 1149.9 51.1C1150.3 50.3 1149.7 49.5 1148.6 49.1 1147.9 49 1147.1 49.6 1146.6 50.4L1145.1 56.8 1137 49.1C1136.4 48.3 1135.5 48.5 1134.7 49.1 1134.4 49.5 1134.3 50.2 1134.4 50.5 1134.5 50.8 1134.6 51.1 1135 51.3L1142.8 59.1 1136.3 60.9C1135.4 61.2 1135.1 62.3 1135.2 62.9L1135.2 62.9C1135.5 63.8 1136.3 64.3 1137.2 64L1145.5 61.7 1151.6 67.9 1135 72.6C1134.1 72.9 1133.6 73.7 1133.9 74.6S1134.9 75.9 1135.9 75.7L1154.3 70.5 1163.9 79.7 1149 82.3 1160.9 91.5 1148 95.2 1134.3 81.8C1133.4 81 1132.5 81.3 1131.9 81.8 1131.4 82.3 1131.3 83.3 1131.9 84.1L1144.3 96.2 1136.3 98.5 1130 92.6C1129.4 91.8 1128.4 91.8 1127.7 92.6 1127.1 93.1 1127.1 94.1 1127.7 95L1132.6 99.5 1121.8 102.6C1120.9 102.9 1120.5 103.6 1120.7 104.6S1121.8 105.9 1122.7 105.7L1133.5 102.6 1132 109C1131.8 109.4 1131.8 109.7 1131.9 110.1 1132.1 110.7 1132.5 110.9 1132.9 111.1 1134 111.5 1134.8 110.9 1134.9 109.9L1137.2 101.6 1145.5 99.2 1141 116.1C1141.1 116.5 1141.1 116.8 1141.2 117.1 1141.4 117.7 1141.8 117.9 1142.2 118.1 1143.3 118.5 1144.1 117.9 1144.2 116.9L1148.9 98.3 1161.8 94.6 1156.5 108.8 1170.5 103.1 1167.2 116 1148.7 121.3C1147.8 121.5 1147.5 122.6 1147.6 123.2 1147.9 124.2 1148.7 124.6 1149.6 124.3L1166.2 119.6 1164.3 128.2 1156 130.5C1155.1 130.8 1154.6 131.6 1154.9 132.5S1155.9 133.9 1156.9 133.6L1163.3 131.8 1160.7 142.5C1160.5 142.9 1160.6 143.2 1160.7 143.5 1160.8 143.8 1161.2 144.3 1161.9 144.5 1162.6 144.6 1163.6 144.3 1163.6 143.3ZM1161.9 103.2L1166.3 91.7 1156.5 84.1 1168.9 82 1170.5 69.9 1178.4 79.3 1189.8 74.7 1185.4 86.3 1195.2 93.8 1183.1 95.9 1181.3 108.1 1173.6 98.6 1161.9 103.2Z" fill="rgba(235, 245, 255, 0.58)"></path><path d="M412.1 222.2L427.7 238.3 414.8 242.1C413.4 242.4 412.3 244.1 412.4 246.1 413.3 247.7 415 248.8 416.5 247.9L432.9 243.6 445.6 255.6 411.5 264.4C409.9 265.3 408.8 267 409.1 268.4 409.9 270.6 411.5 271.7 413.1 270.8L450.8 261 469.6 279.9 439.3 284.4 463.4 303.4 437.7 310.4 409.8 283.2C410 282.6 409.4 282.4 408.8 282.2 407.5 281.9 406.1 282.2 405.2 283.3 404.2 284.3 404.4 286.4 405.3 287.9L430.5 312.5 413.5 316.6 401.4 304.8C401 304 400.4 303.9 399.8 303.7 399.1 303.5 397.7 303.8 396.8 304.9 395.8 306 396 308 397 308.9L406.4 318.7 384.9 324.9C382.8 325 382.3 326.9 382.5 328.9 382.8 330.3 384.5 331.4 386.6 330.7L408 325.1 404.5 338.1C404 339.9 405.6 341.7 406.8 342 408.7 342.5 410.2 341.6 410.7 339.7L415.2 323 432.1 318.9 423.3 352.3C422.8 354.2 423.7 355.7 425.5 356.2 426.8 356.5 429 355.8 429.5 353.9L439.3 316.8 465 309.8 454.2 338 482.3 326.9 475.4 352.9 438.3 362.9C436.2 363.7 435.7 365.5 436 366.9 436.2 368.3 437.9 369.4 440 369.3L473.6 359.7 469.2 376.4 452.7 381.3C450.6 381.4 449.5 383.1 450.3 385.3 450.6 386.7 452.3 387.8 454.4 387.1L467.2 383.8 461.5 405.5C461 407.3 461.9 408.9 463.7 409.4S467.2 409 467.7 407.1L473.4 385.5 482.9 394.6C484.4 396.3 486.4 396.2 487.4 395.1 489.1 393.6 489 391.6 487.3 390.5L475.4 378.1 479.8 361.3 504.3 386.4C506 387.5 508 387.4 508.9 386.3 510.7 384.8 510.5 382.7 508.9 381.6L481.6 354.5 488.5 328.6 507.4 352.1 512 322.2 530.9 341.1 521 378.2C520.5 380.1 522 381.8 523.3 382.2 525.1 382.6 526.7 381.7 527.2 379.9L536.2 345.9 548.8 358.5 544.3 375.2C543.9 377 544.8 378.6 546.6 379.1 547.9 379.4 550 378.7 550.5 376.8L554 363.8 569.7 379.3C571.3 381 573.3 380.9 574.4 379.2 575.3 378.1 575.8 376.2 574.2 375.1L558.5 359.1 571.5 355.2C572.9 354.9 574 353.2 573.7 351.8 573.4 350.4 572.3 349.5 571.7 349.3 571.1 349.2 570.5 349 569.7 349.4L553.3 353.7 540.6 341.7 574.8 332.9C576.3 332 577.4 330.3 577.1 328.9 576.9 327.5 575.8 326.6 574.5 326.2 573.9 326.1 573.9 326.1 573.1 326.5L535.4 336.4 516.6 317.5 546.9 312.9 522.8 294 548.6 286.9 576.4 314.1C577.5 315.1 579.4 315.6 581.1 314.1 582 313 581.9 311 581 309.4L555.7 284.8 572.7 280.7 584.8 292.5C585.7 294.1 587.7 294 589.5 292.4 590.4 291.4 590.3 289.4 589.4 287.8L579.9 278.6 601.4 272.4C603.4 272.3 603.9 270.5 603.8 268.4 603.3 267.7 602.3 266.7 601.6 266.5 601 266.4 600.4 266.2 599.6 266.7L578.3 272.3 581.7 259.3C582.2 257.4 580.7 255.7 579.4 255.4L579.4 255.4C577.6 254.9 576 255.8 575.5 257.6L571.1 274.3 554.1 278.4 563 245C563.5 243.2 562.6 241.6 560.7 241.1S557.3 241.5 556.8 243.4L546.9 280.5 521.2 287.6 532 259.3 503.9 270.4 510.8 244.4 547.9 234.4C550.1 233.7 550.6 231.8 550.3 230.4 550 229 548.3 227.9 546.3 228L512.8 237 517.1 220.9 533.6 216C535.6 215.9 536.7 214.2 536 212 535.7 210.6 534 209.5 532 209.7L519 213.5 524.8 191.9C525.3 190 524.4 188.4 522.5 187.9S519.1 188.4 518.6 190.2L512.9 211.9 503.4 202.7C502.9 201.9 502.3 201.8 501.7 201.6 500.4 201.3 499.6 201.7 498.9 202.2 497.1 203.7 497.3 205.7 499 206.9L510.9 219.3 506.4 236 482 211C481.4 210.8 480.7 210.6 480.1 210.5 478.9 210.1 478.1 210.6 477.3 211 475.6 212.6 475.7 214.6 477.4 215.7L504.6 242.8 497.7 268.8 478.8 245.2 474.2 275.1 455.4 256.2 465.2 219.1C465.7 217.2 464.2 215.5 463 215.2 461.1 214.7 459.5 215.6 459.1 217.5L450.2 250.9 437.5 238.9 441.9 222.2C442.4 220.3 441.5 218.8 439.6 218.3S436.2 218.7 435.7 220.5L432.3 233.5 416.5 218.1C416.1 217.3 415.4 217.1 414.8 217 414.2 216.8 412.8 217.1 411.9 218.2 410.9 219.2 410.4 221.1 412.1 222.2ZM482.8 260.2L498.2 279.5 521.2 270.4 512.3 293.8 531.5 308.8 507.2 313 503.4 337.2 488 317.8 465.1 327 473.8 304.1 454.8 288.5 478.9 285 482.8 260.2Z" fill="rgba(235, 245, 255, 0.58)"></path><path d="M1068.7 574.1L1056.5 543.3 1068.6 516.2 1086 540.1 1080.6 572.9C1080.6 572.9 1080.6 573.3 1080.6 573.3 1080.7 574.1 1081.6 574.8 1082.4 575.1 1083.7 575.4 1084.8 574.4 1084.7 573.3L1089.3 544.6 1097.7 556.2 1095.9 568.9C1095.9 568.9 1095.9 569.2 1095.9 569.2 1096 570 1096.9 570.8 1097.7 571.1 1098.9 571.3 1100 570.4 1099.9 569.2L1101.4 560.6 1107.6 569.2C1108 570 1109.7 570.2 1110.4 569.7 1111.6 569.2 1111.4 567.6 1110.9 566.9L1104.8 558.2 1113.4 559.8C1114.6 560 1115.7 559.1 1115.6 557.9 1115.9 556.7 1115 555.6 1113.8 555.7L1101.1 553.8 1093 542.2 1121.7 546.8C1122.9 547.1 1124 546.2 1123.9 545 1124.2 543.7 1123.2 542.6 1122 542.7L1089.3 537.4 1071.9 513.5 1101.7 510.3 1127.7 531.3C1128.6 532 1129.7 531.9 1130.5 531 1131.2 530.1 1131 528.9 1130.2 528.2L1107.3 509.7 1121.6 508.2 1131.3 516C1132.2 516.7 1133.4 516.6 1134.1 515.7 1134.8 514.8 1134.7 513.7 1133.8 512.9L1127.2 507.6 1138.3 506.4C1139.5 506.7 1140.2 505.4 1140.1 504.2 1140 503 1139.1 502.3 1137.9 502.5L1127.5 503.5 1132.9 496.9C1133.6 496.1 1133.5 494.9 1132.6 494.2S1130.5 493.6 1129.8 494.5L1122 504.1 1107.7 505.7 1126.2 482.8C1126.9 481.9 1126.7 480.7 1125.9 480 1125 479.3 1123.8 479.4 1123.1 480.3L1102.1 506.2 1072.7 509.4 1084.7 482.3 1114.8 470.7C1116 470.2 1116.2 468.9 1116.1 467.8 1115.6 466.6 1114.4 466.3 1113.2 466.5L1086.1 477 1092 463.9 1104 459.4C1105.1 458.9 1105.4 457.6 1105.3 456.4 1104.7 455.3 1103.5 455 1102.7 455.1L1094.6 458.4 1098.8 448.7C1099.1 447.8 1099 446.2 1097.7 446 1096.5 445.7 1095.3 445.8 1095 447.1L1090.8 456.8 1087.5 448.7C1087 447.5 1085.8 447.2 1085 447.3 1084.2 447.8 1083.5 448.7 1083.6 449.5 1083.6 449.5 1083.6 449.9 1083.6 449.9L1088.1 461.9 1082.3 475 1071.8 447.9C1071.3 446.8 1070 446.5 1069.2 446.6 1068.5 447.1 1067.8 447.9 1067.8 448.7 1067.8 448.7 1067.9 449.1 1067.9 449.1L1080 480 1068 507 1050.6 483.1 1055.9 450.4C1056.2 449.2 1055.3 448.1 1054.1 448.2 1052.9 447.9 1051.8 448.8 1051.9 450L1047.3 478.7 1038.8 467.1 1040.7 454.4C1041 453.2 1040 452.1 1038.8 452.2 1037.6 451.9 1036.5 452.9 1036.6 454.1L1035.1 462.7 1029 454.1C1028.5 453.3 1026.9 453.1 1026.1 453.6 1025.4 454 1025 454.9 1025.1 455.7 1025.2 456.1 1025.2 456.5 1025.7 456.8L1031.8 465.4 1023.2 463.9C1022 463.7 1020.8 464.6 1021 465.8 1021 465.8 1021 466.2 1021 466.2 1021.1 467 1022 467.7 1022.8 468L1035.5 469.9 1044 481.4 1015.3 476.8C1014.1 476.6 1013 477.5 1013.1 478.7 1013.1 478.7 1013.1 479.1 1013.1 479.1 1013.2 479.9 1014.1 480.6 1014.9 480.9L1047.7 486.3 1065.1 510.2 1035.7 513.3 1009.7 492.3C1008.8 491.6 1007.6 491.7 1006.9 492.6 1006.2 493.5 1006.3 494.7 1007.2 495.4L1029.7 513.9 1015.4 515.4 1005.7 507.6C1004.8 506.9 1003.6 507 1002.9 507.9S1002.3 510 1003.2 510.7L1009.8 516 999.5 517.1C998.3 517.2 997.6 518.1 997.7 519.3 997.8 520.5 998.7 521.2 999.9 521.1L1010.2 520 1004.9 526.6C1004.5 527 1004.2 527.5 1004.3 528.3S1004.8 529.4 1005.2 529.8C1006.1 530.5 1007.3 530.4 1008 529.5L1015.8 519.8 1030.2 518.3 1011.7 541.2C1011.3 541.6 1011 542 1011 542.8 1011.1 543.2 1011.6 544 1012 544.4 1012.9 545.1 1014.1 544.9 1014.8 544.1L1035.8 518.1 1065.2 515 1053.2 542 1022.3 554.1C1021.5 554.6 1020.8 555.5 1020.9 556.3 1020.9 556.3 1021 556.7 1021 556.7 1021.5 557.8 1022.7 558.1 1023.5 558L1050.6 547.5 1044.7 560.6 1032.7 565.1C1032 565.6 1031.2 566.4 1031.3 567.2 1031.3 567.2 1031.4 567.6 1031.4 567.6 1031.9 568.8 1033.1 569.1 1033.9 569L1042 565.7 1037.8 575.4C1037.9 575.8 1037.5 576.2 1037.6 576.6 1037.6 577.4 1038.1 578.2 1039 578.5 1040.2 578.8 1041.4 578.6 1041.7 577.4L1045.9 567.7 1049.1 575.8C1049.7 577 1050.9 577.2 1051.7 577.2 1052.8 576.6 1053.1 575.4 1053 574.6L1048.5 562.6 1054.4 549.5 1064.9 576.6C1065.4 577.7 1066.7 578 1067.5 577.9 1068.5 576.6 1069.2 575.3 1068.7 574.1Z" fill="rgba(235, 245, 255, 0.58)"></path><path d="M1136.3 330L1123.7 307.8 1126.4 298.8 1130.6 306.3C1130.9 307.3 1131.9 307.3 1132.8 307.1 1133.4 306.6 1133.7 305.6 1133.3 305L1127.6 294.6 1130 285.7 1136.3 292.3 1136.1 304.3C1136.1 304.3 1136.1 304.6 1136.1 304.6 1136.3 305.2 1137.1 305.7 1137.8 305.8 1138.7 305.6 1139.2 305.1 1139.3 304.1L1139.4 295.5 1145.8 302.2 1145.6 327.6C1145.6 327.6 1145.4 328 1145.4 328 1145.5 328.6 1146.3 329.1 1147 329.3 1148 329.3 1148.8 328.5 1148.6 327.5L1148.9 305.3 1156.8 313.2 1156.7 323.2C1156.7 323.2 1156.7 323.2 1156.8 323.5 1156.9 324.1 1157.4 324.6 1158.1 324.8 1159 324.5 1159.9 324 1160 323L1159.9 316.4 1165.7 322.2C1166.2 323 1167.2 322.8 1167.7 322.3 1168.6 321.8 1168.6 320.8 1167.8 320L1162.3 314.1 1168.7 314.5C1169.6 314.3 1170.5 313.7 1170.2 312.8 1170.3 311.8 1169.8 311.2 1168.8 311.2L1158.9 311 1151.3 303.1 1173.8 303.3C1174.5 303.5 1175.2 302.6 1175.3 301.6 1175.2 301 1174.6 300.1 1173.6 300L1148.1 299.9 1141.8 293.3 1150.5 293.4C1151.5 293.5 1151.9 292.7 1152 291.7 1152.2 291 1151.3 290.2 1150.6 290L1138.7 290.1 1132.1 283.5 1141.1 281.2 1151.2 287.2C1152 287.7 1152.9 287.5 1153.4 286.7 1153.9 286.2 1153.6 285 1152.8 284.5L1145.4 280.1 1154.4 277.8 1176.3 291.1C1177.1 291.6 1178 291.3 1178.5 290.6 1178.9 289.8 1178.7 288.9 1177.9 288.4L1158.8 276.7 1169.3 274.1 1177.9 279.2C1178.7 279.6 1179.6 279.4 1180 278.6 1180.5 277.8 1180.3 276.9 1179.5 276.4L1174 272.9 1181.7 270.9C1182.7 270.7 1183.1 269.9 1182.9 269 1182.6 268 1181.9 267.6 1180.9 267.8L1173.2 269.8 1176.4 264.3C1176.9 263.6 1176.6 262.6 1175.9 262.2S1174.2 261.9 1173.7 262.7L1168.8 270.9 1158 273.6 1169.3 254.6C1169.8 253.8 1169.5 252.9 1168.8 252.4 1168 251.9 1167.1 252.2 1166.6 253L1153.6 274.7 1144.6 277 1149 269.6C1149.5 268.9 1149.3 267.9 1148.5 267.5 1147.7 267 1146.8 267.2 1146.3 268L1140.3 278.1 1131.6 280.3 1134.1 271.8 1144.5 265.9C1145 265.4 1145.4 264.3 1144.9 263.8 1144.4 262.9 1143.7 262.7 1142.7 263L1135.2 267.2 1137.7 258.7 1159.9 246.1C1160.8 245.5 1160.9 244.8 1160.7 243.9 1160.1 243.1 1159.1 243 1158.5 243.1L1138.8 254.1 1142 243.4 1150.4 238.6C1151.3 238.4 1151.4 237.3 1151.2 236.4 1150.7 235.9 1149.6 235.5 1148.8 236L1143.3 239.1 1145.3 231.3C1145.7 230.5 1145.2 229.7 1144.1 229.3 1143.4 229.1 1142.5 229.7 1142.4 230.4L1140.1 238.2 1137 232.4C1136.4 231.6 1135.4 231.5 1134.9 232 1133.9 232.2 1133.8 232.9 1133.9 233.5 1134 233.8 1134 233.8 1134.1 234.1L1138.9 242.5 1135.6 253.2 1124.8 233.9C1124.5 232.9 1123.5 232.9 1122.6 233.1 1122.1 233.6 1121.9 234.3 1122.1 234.9 1122.1 235.2 1122.1 235.2 1122.1 235.2L1134.5 257.8 1132 266.4 1127.8 258.9C1127.3 258 1126.6 257.8 1125.6 258.1 1125.1 258.6 1124.6 259.3 1124.8 259.9 1124.9 260.3 1124.9 260.3 1125 260.6L1130.9 270.9 1128.4 279.5 1122.2 273.2 1122.2 261.3C1122.2 260.3 1121.4 259.5 1120.7 259.3 1119.7 259.6 1118.9 260.1 1119.1 261.1L1119 269.7 1112.5 263.4 1112.8 237.6C1113 236.9 1112.1 236.1 1111.4 235.9 1110.5 236.2 1109.7 236.7 1109.6 237.7L1109.3 259.9 1101.6 252 1101.8 242.3C1101.9 241.3 1101 240.6 1100.1 240.8 1099.4 240.6 1098.6 241.2 1098.5 242.2L1098.5 248.8 1092.8 243C1092.3 242.5 1091.3 242.4 1090.4 242.9 1090.2 243.3 1090 244 1090.2 244.6 1090.2 244.6 1090.3 244.9 1090.4 245.3L1096.1 251.1 1089.5 251.1C1088.8 250.9 1088.1 251.8 1087.9 252.5 1088 252.8 1088 252.8 1088 252.8 1088.2 253.7 1089 254.2 1089.6 254L1099.2 254.2 1107.2 262.1 1084.7 261.9C1083.7 262.1 1083.2 262.6 1083.1 263.6 1083.1 263.6 1083.2 263.9 1083.2 263.9 1083.4 264.5 1083.8 265.1 1084.8 265.1L1110.4 265.6 1116.6 271.9 1108 271.8C1107.1 272 1106.2 272.6 1106.5 273.5 1106.1 273.6 1106.2 273.9 1106.2 273.9 1106.4 274.5 1107.2 275 1107.9 275.1L1119.7 275.1 1126 281.8 1117.4 284 1107.2 277.9C1106.5 277.5 1105.2 277.8 1104.8 278.6 1104.6 279.3 1104.8 280.2 1105.3 280.7L1113 285.1 1104 287.3 1082.2 274.4C1081.5 273.9 1080.5 274.2 1080.1 274.9 1079.6 275.7 1079.8 276.6 1080.6 277.1L1099.7 288.4 1088.8 291.2 1080.7 286.3C1079.9 285.9 1078.9 286.1 1078.5 286.9S1078.3 288.6 1079 289.1L1084.5 292.3 1076.7 294.3C1075.8 294.5 1075.3 295.3 1075.6 296.2 1075.8 297.2 1076.6 297.6 1077.5 297.4L1085.3 295.4 1082.1 301.2C1081.9 301.6 1081.6 301.9 1081.7 302.3 1081.8 302.6 1082.3 303.1 1082.7 303.3 1083.4 303.8 1084.4 303.6 1084.8 302.8L1089.6 294.3 1100.5 291.5 1089.2 310.9C1089 311.3 1088.7 311.7 1088.8 312 1088.9 312.3 1089.4 312.9 1089.8 313.1 1090.5 313.6 1091.5 313.3 1091.9 312.5L1104.8 290.4 1113.8 288.2 1109.1 295.6C1108.9 296 1109 296.6 1109.1 297 1109.2 297.3 1109.3 297.6 1109.6 297.8 1110.4 298.3 1111.7 297.9 1111.8 297.3L1118.1 287.1 1126.8 284.9 1124.5 293.7 1114 299.3C1113.5 299.8 1113 300.6 1113.2 301.2 1113.2 301.5 1113.2 301.5 1113.5 301.4 1113.8 302.4 1114.9 302.7 1115.7 302.2L1123.2 298 1120.9 306.8 1098.2 319.2C1097.7 319.7 1097.5 320.4 1097.7 321 1097.8 321.3 1097.8 321.3 1097.8 321.3 1098.3 322.1 1099.1 322.6 1100 322.1L1119.6 311.1 1116.4 321.8 1108 326.6C1107.2 327.1 1107 327.8 1107.2 328.5 1107.2 328.5 1107.3 328.8 1107.3 328.8 1107.8 329.6 1108.8 329.7 1109.5 329.5L1115.2 326.1 1112.9 334C1113 334.3 1113 334.6 1113.1 334.9 1113.2 335.2 1113.7 335.7 1114.1 336 1115.1 336 1116 335.8 1116.1 334.8L1118.4 327 1121.5 332.8C1122 333.6 1123.1 333.7 1123.7 333.5 1124.5 333 1124.6 332 1124.4 331L1119.6 322.7 1122.5 312 1133.4 331.4C1133.9 332.2 1135 332.6 1135.5 332.2 1136.4 331.6 1136.9 330.8 1136.3 330Z" fill="rgba(235, 245, 255, 0.58)"></path><path d="M326.8 424.8L293.7 457.4 252.4 456.8 273.5 421.3 318.6 410.2C318.6 410.2 319.1 409.9 319.1 409.9 320.1 409.3 320.5 407.8 320.5 406.6 320.2 404.8 318.4 403.9 316.9 404.7L277.5 414.6 287.7 397.3 305.1 392.7C305.1 392.7 305.5 392.5 305.5 392.5 306.5 391.9 307 390.4 306.9 389.1 306.6 387.4 304.8 386.5 303.3 387.3L291.4 390.1 299.1 377.5C299.8 376.4 299.2 374.2 298.2 373.5 296.8 372.3 294.9 373.4 294.2 374.4L286.5 387.1 283.7 375.2C283.4 373.4 281.6 372.5 280.1 373.3 278.4 373.7 277.4 375.4 278.3 376.9L282.8 394.3 272.3 411 262.5 371.6C262.1 369.9 260.3 369 258.9 369.8 257.1 370.1 256.2 371.9 257 373.4L268.1 418.5 247 454.1 226.5 417.4 239.2 372.4C239.6 370.9 238.8 369.5 237.3 369 235.8 368.6 234.3 369.4 233.9 370.9L222.6 410.6 212.8 393 217.6 376.2C218 374.7 217.2 373.2 215.6 372.8 214.1 372.3 212.7 373.2 212.2 374.7L209 386.1 201.3 372.4C201 370.7 199 370.5 197.5 371.4 196.1 372.2 195.6 373.7 196.4 375.2L203.6 387.9 192.1 384.6C190.6 384.2 189.1 385 188.7 386.6S189.1 389.5 190.6 390L207.4 394.7 217.2 412.3 177.6 401.1C176.1 400.7 174.6 401.5 174.2 403 173.7 404.5 174.6 406 176.1 406.4L221 419.2 241.3 455.3 199.9 454.7 168.3 422.3C167 421.1 165.2 421.5 163.8 422.3 162.6 423.6 162.9 425.3 163.7 426.8L192.1 455.8 172.1 455.5 159.7 442.5C158.4 441.3 156.6 441.7 155.2 442.5 154 443.8 154.3 445.5 154.9 446.5L163.5 455.2 148.7 455.1C147.5 455.1 145.5 456.2 145.9 458 146.2 459.7 147 461.2 148.7 460.8L163.5 460.9 154.9 469.6C153.7 470.9 154.1 472.6 154.6 473.6 155.6 474.3 157.2 474.7 158.1 474.2 158.1 474.2 158.6 473.9 158.6 473.9L171.6 461.5 191.7 461.9 162.6 490.3C161.4 491.6 161.8 493.3 162.3 494.3 163.4 495 164.9 495.5 165.9 494.9 165.9 494.9 166.3 494.6 166.3 494.6L199.4 462 240.8 462.6 219.7 498.2 174.5 509.3C172.8 509.6 171.9 511.4 172.7 512.9 173 514.6 174.8 515.6 176.3 514.7L215.7 504.9 205.5 522.2 188.1 526.7C186.4 527.1 185.5 528.9 186.3 530.3 186.6 532.1 188.4 533 189.9 532.2L201.8 529.4 194.1 542C193.4 543 194 545.3 195 546 196.1 546.7 197.3 546.6 198.3 546.1 198.8 545.8 199.3 545.5 199.5 544.8L207.2 532.1 210 544C210.3 545.8 212.1 546.7 213.6 545.9 213.6 545.9 214.1 545.6 214.1 545.6 215 545 215.5 543.5 215.4 542.3L210.9 524.9 221.1 507.7 230.9 547.1C231.3 548.8 233.1 549.7 234.5 548.9 234.5 548.9 235 548.6 235 548.6 236 548.1 236.4 546.6 236.4 545.3L225.3 500.2 246.4 464.6 266.7 500.8 253.9 545.8C253.5 547.3 254.3 548.7 255.9 549.2 257.4 549.6 258.8 548.8 259.3 547.3L270.8 508.1 280.6 525.7 275.9 542.5C275.4 544 276.2 545.5 277.8 545.9S280.8 545.5 281.2 544L284.4 532.6 291.5 545.3C292.3 546.7 293.9 547.2 295.3 546.4 296.8 545.5 297.2 544 296.4 542.5L289.3 529.8 300.7 533.1C301.5 533.3 302.3 533.5 303.2 533S304.4 531.6 304.6 530.9C305.1 529.4 304.3 527.9 302.7 527.5L286 522.7 276.1 505.1 315.8 516.3C316.5 516.6 317.3 516.8 318.3 516.2 318.8 515.9 319.5 514.9 319.7 514.2 320.1 512.6 319.3 511.2 317.8 510.7L272.8 498 252.6 461.8 294 462.4 326.6 495.5C327.6 496.2 329.1 496.7 330.1 496.1 330.1 496.1 330.6 495.8 330.6 495.8 331.8 494.5 331.5 492.8 330.9 491.8L302.5 462.8 322.6 463.1 335 476.1C336 476.8 337.5 477.2 338.5 476.7 338.5 476.7 339 476.4 339 476.4 340.2 475.1 339.9 473.4 339.3 472.4L330.6 463.8 345.4 463.8C345.9 463.6 346.7 463.8 347.2 463.5 348.2 462.9 348.9 461.9 348.8 460.7 348.5 458.9 347.7 457.5 345.9 457.8L331.1 457.7 339.7 449C340.9 447.7 340.6 446 340.1 445 338.7 443.8 337 444.2 336 444.7L323.1 457.1 303 456.8 332 428.3C333.2 427 332.9 425.3 332.3 424.3 330.1 423.7 328 423.5 326.8 424.8Z" fill="rgba(235, 245, 255, 0.58)"></path><path d="M1399.3 154L1394.3 185.5 1384.7 192.2 1386.4 181.6C1386.9 180.5 1386 179.6 1384.9 179.1 1384 179.2 1382.8 179.9 1382.8 180.8L1380.2 195.4 1371 202.2 1370 190.8 1379.5 179.3C1379.5 179.3 1379.7 179 1379.7 179 1380 178.2 1379.6 177.2 1379.1 176.5 1378 176 1377.1 176 1376.2 177L1369.4 185.3 1368.4 173.9 1388.3 149.1C1388.3 149.1 1388.9 148.9 1388.9 148.9 1389.2 148.2 1388.8 147.1 1388.2 146.4 1387.3 145.6 1385.9 145.8 1385.4 146.9L1367.8 168.4 1366.2 154.5 1374 144.8C1374 144.8 1374 144.8 1374.2 144.5 1374.5 143.7 1374.5 142.8 1373.9 142.2 1372.8 141.7 1371.6 141.5 1370.7 142.5L1365.6 148.9 1364.5 138.8C1364.6 137.5 1363.5 137 1362.6 137.1 1361.3 136.9 1360.5 137.9 1360.7 139.3L1361.5 149.3 1355.5 144C1354.4 143.5 1353.2 143.3 1352.7 144.4 1351.8 145.4 1351.9 146.3 1352.8 147.1L1362.4 155 1363.7 168.7 1341.9 151C1341.3 150.3 1339.9 150.5 1339 151.4 1338.7 152.2 1338.6 153.4 1339.5 154.3L1364.3 174.2 1365.3 185.6 1357 178.8C1356 178 1355 178.4 1354.1 179.3 1353.4 179.9 1353.6 181.3 1354.2 182L1365.9 191.2 1367.2 202.8 1356.7 198 1351.4 184.2C1351 183.2 1349.9 182.7 1348.9 183.1 1348 183.1 1347.3 184.6 1347.7 185.6L1351.5 195.7 1341 190.9 1329.9 160.9C1329.5 159.9 1328.4 159.4 1327.4 159.8 1326.3 160.2 1325.8 161.3 1326.2 162.3L1335.9 188.6 1323.5 183 1319.1 171.4C1318.7 170.3 1317.6 169.9 1316.5 170.3 1315.4 170.7 1315 171.7 1315.4 172.8L1318 180.6 1308.9 176.5C1307.8 176 1306.7 176.4 1306.2 177.5 1305.7 178.6 1306.1 179.6 1307.2 180.1L1316.4 184.2 1308.9 187C1307.9 187.4 1307.4 188.5 1307.8 189.6S1309.3 191.1 1310.3 190.7L1321.5 186.5 1334.2 192.3 1308.3 202.1C1307.2 202.5 1306.8 203.6 1307.2 204.6 1307.6 205.7 1308.6 206.2 1309.7 205.8L1339.3 194.6 1349.9 199.3 1339.9 203.1C1338.8 203.5 1338.3 204.6 1338.7 205.7 1339.1 206.8 1340.2 207.3 1341.3 206.8L1355 201.6 1365.2 206.2 1356.2 212.7 1341.4 210.4C1340.5 210.5 1339.3 211.2 1339.3 212.1 1339.2 213.4 1339.8 214.1 1340.9 214.6L1351.5 216.3 1342.4 222.7 1310.9 217.7C1309.6 217.6 1309 218.2 1308.5 219.3 1308.3 220.5 1309.3 221.4 1310 221.7L1337.7 226.3 1326.3 234.3 1314.4 232.5C1313.3 232 1312.4 232.9 1311.9 234 1312 234.9 1312.7 236.1 1314 236.2L1321.7 237.5 1313.7 243.6C1312.7 244 1312.6 245.2 1313.3 246.5 1313.9 247.2 1315.1 247.3 1315.8 246.7L1324.2 240.8 1322.7 249C1322.6 250.2 1323.5 251.1 1324.4 251 1325.5 251.5 1326.2 251 1326.5 250.2 1326.7 249.9 1326.7 249.9 1326.9 249.5L1328.7 237.6 1340.2 229.6 1335.8 257C1335.3 258.1 1336.2 259 1337.3 259.5 1338.2 259.4 1338.9 258.9 1339.2 258.1 1339.4 257.8 1339.4 257.8 1339.4 257.8L1344.9 226 1353.9 219.6 1352.2 230.2C1352.1 231.5 1352.7 232.2 1353.8 232.7 1354.7 232.6 1355.7 232.2 1356 231.5 1356.2 231.1 1356.2 231.1 1356.4 230.8L1358.6 216 1367.7 209.5 1368.8 220.6 1359.6 232.2C1358.8 233.2 1359 234.6 1359.6 235.3 1360.7 235.8 1361.9 235.9 1362.4 234.8L1369.3 226.5 1370.8 237.7 1350.3 262.7C1349.6 263.3 1349.9 264.7 1350.4 265.4 1351.5 265.9 1352.8 266 1353.6 265.1L1371.2 243.6 1372.5 257.3 1364.8 266.6C1363.9 267.5 1364.2 268.9 1365.3 269.4 1365.8 270.1 1367.1 270.3 1368 269.3L1373.1 262.9 1374.2 273C1374.2 273.9 1375.2 274.8 1376.4 274.9 1376.9 274.7 1377.6 274.1 1378 273.4 1378 273.4 1378.1 273 1378.3 272.7L1377.2 262.5 1383.6 267.6C1384.2 268.3 1385.6 268.1 1386.3 267.5 1386.5 267.1 1386.5 267.1 1386.5 267.1 1387 266.1 1386.6 265 1385.8 264.7L1376.6 257 1374.9 243.1 1396.8 260.8C1397.9 261.3 1398.8 261.3 1399.6 260.3 1399.6 260.3 1399.8 260 1399.8 260 1400.1 259.3 1400.1 258.4 1399.2 257.5L1374.5 237.2 1373.4 226.1 1381.7 233C1382.8 233.5 1384.1 233.6 1384.5 232.5 1384.9 232.7 1385.1 232.3 1385.1 232.3 1385.4 231.6 1385 230.5 1384.4 229.8L1372.8 220.6 1371.8 209.2 1382 213.8 1387.2 227.6C1387.6 228.6 1389.1 229.3 1390.1 228.9 1390.8 228.3 1391.3 227.2 1391.3 226.3L1387.1 216.1 1397.7 220.9 1408.9 250.5C1409.3 251.5 1410.4 252 1411.5 251.6 1412.5 251.2 1413 250.1 1412.6 249.1L1402.8 223.2 1415.6 228.9 1419.8 240C1420.2 241.1 1421.3 241.6 1422.3 241.2S1423.9 239.7 1423.5 238.6L1420.7 231.2 1429.8 235.3C1430.9 235.8 1431.9 235.4 1432.4 234.3 1432.9 233.2 1432.5 232.2 1431.4 231.7L1422.3 227.6 1429.9 224.4C1430.4 224.2 1430.9 224 1431.1 223.6 1431.3 223.3 1431.2 222.4 1431 221.8 1430.6 220.8 1429.5 220.3 1428.5 220.7L1417.2 225.3 1404.4 219.5 1430.5 209.3C1431 209.1 1431.6 208.9 1431.7 208.6 1431.9 208.2 1431.9 207.3 1431.7 206.8 1431.3 205.7 1430.2 205.2 1429.1 205.6L1399.3 217.2 1388.7 212.4 1399.2 208.8C1399.7 208.6 1400 207.9 1400.2 207.5 1400.3 207.1 1400.5 206.8 1400.3 206.3 1399.9 205.2 1398.5 204.5 1397.8 205.1L1383.6 210.1 1373.4 205.5 1382.6 198.7 1397.3 201.4C1398.1 201.3 1399.2 200.9 1399.5 200.2 1399.7 199.8 1399.7 199.8 1399.3 199.7 1399.8 198.6 1399.1 197.4 1397.8 197.2L1387.2 195.5 1396.4 188.7 1428.1 194.2C1429 194.2 1429.7 193.6 1430 192.9 1430.2 192.5 1430.2 192.5 1430.2 192.5 1430.3 191.3 1429.9 190.2 1428.7 190.1L1400.9 185.5 1412.4 177.5 1424.3 179.3C1425.5 179.5 1426.2 178.9 1426.6 178.2 1426.6 178.2 1426.7 177.8 1426.7 177.8 1426.9 176.5 1425.9 175.7 1425.2 175.3L1416.9 174.3 1425.3 168.4C1425.4 168 1425.6 167.6 1425.8 167.3 1425.9 166.9 1425.9 166 1425.7 165.5 1424.8 164.6 1423.7 164.1 1422.8 165.1L1414.5 170.9 1415.9 162.8C1416.1 161.6 1415.1 160.7 1414.4 160.4 1413.1 160.3 1412.3 161.2 1411.8 162.3L1409.9 174.2 1398.8 182.3 1403.3 154.9C1403.4 153.7 1402.6 152.5 1401.7 152.5 1400.5 152.4 1399.4 152.8 1399.3 154Z" fill="rgba(235, 245, 255, 0.58)"></path><path d="M843 114.9L859.8 94.5 867.1 93.6 876.6 106.9 873.7 113.7 848.8 122.9C848.5 123.1 848.5 123.1 848.3 123.3 847.8 123.7 847.4 124.3 847.7 125.3 848.3 126.1 848.9 126.4 849.9 126.1L871.6 118 866.9 128.4 857.4 132.1C857.4 132.1 857.1 132.3 857.1 132.3 856.6 132.7 856.3 133.3 856.6 134.3 856.7 135 857.8 135.4 858.7 135.1L865 132.9 861.5 140.6C861.2 141.2 861.5 142.2 862.3 142.8S864.1 142.6 864.7 141.8L868 134.3 870.5 140.5C870.8 141.4 871.8 141.8 872.8 141.5 873.3 141.2 873.9 140.3 873.6 139.4L869.9 129.8 874.9 119.2 883 140.9C883.3 141.9 884.4 142.3 885.1 142.2 885.9 141.6 886.5 140.8 886.2 139.8L876.7 115.1 879.9 108.1 895.7 106.5 900.2 112.8 896.2 138.9C896 139.8 896.6 140.6 897.5 140.7S899.1 140.3 899.3 139.4L902.8 116.4 909.7 126 908.1 135.8C908 136.7 908.5 137.5 909.6 137.9S911.3 137.5 911.4 136.6L912.3 129.6 917.4 136.7C918 137.4 919.1 137.4 919.9 136.8 920.7 136.3 920.8 135.4 920.3 134.6L915.2 127.6 921.9 128.7C923 129.1 923.8 128.5 923.7 127.4 923.9 126.5 923.3 125.7 922.4 125.6L912.6 124 905.7 114.3 928.6 118.3C929.5 118.5 930.6 117.7 930.7 116.8S930.3 115.1 929.4 115L903.1 110.7 898.6 104.5 905.3 89.8 912.8 89.1 933.2 106C934 106.6 935 106.3 935.7 105.7 936.3 104.9 936 103.9 935.5 103.1L917.4 88.5 928.9 87.4 936.7 94C937.6 94.5 938.5 94.2 939.3 93.7 939.6 93.1 939.6 91.9 938.8 91.3L933.7 87 942.1 86.1C942.8 86 943.4 85.2 943.6 84.3 943.3 83.3 942.5 82.7 941.8 82.9L933.4 83.8 937.7 78.3C938 77.7 938 76.5 937.3 76.2 936.8 75.4 936.1 75.5 935.3 76.1 935.3 76.1 935 76.3 935 76.3L928.5 84.1 917.1 85.2 931.7 67.2C932.3 66.4 932.4 65.5 931.6 64.9 930.8 64.3 930.1 64.4 929.6 64.8 929.3 65 929.3 65 929.3 65L912.4 85.9 904.9 86.5 895.4 73.2 898.5 66.6 923.5 57C924.2 56.8 924.6 55.8 924.5 55.1 924.2 54.1 923.1 53.7 922.2 54L900.4 62.1 905.1 51.7 914.7 47.9C915.6 47.6 916.2 46.8 915.7 46 915.4 45.1 914.3 44.7 913.6 44.8L907.2 47.4 910.7 39.7C910.9 38.8 910.6 37.9 909.8 37.3 909.3 37.2 908.6 37.3 908.1 37.7 907.8 37.9 907.8 37.9 907.7 38.3L904.2 46 901.6 39.6C901.3 38.7 900.4 38.5 899.7 38.6 899.4 38.8 899.4 38.8 899.2 39 898.6 39.4 898.3 40 898.4 40.7L902.1 50.3 897.4 60.7 889.3 39C888.7 38.2 887.9 37.6 887.1 38.2 886.7 38.1 886.7 38.1 886.4 38.3 885.9 38.7 885.8 39.6 885.9 40.3L895.6 65.2 892.4 71.8 876.3 73.6 872 67.6 876.3 41.2C876.5 40.3 875.7 39.3 874.8 39.2S872.9 39.8 872.8 40.7L869.2 63.7 862.5 54.3 863.9 44.3C864.1 43.4 863.5 42.6 862.6 42.4 861.7 42.3 860.9 42.9 860.8 43.7L859.7 50.4 854.6 43.4C854.3 42.9 853.2 42.5 852.4 43.1 851.6 43.6 851.4 45 851.8 45.5L856.8 52.5 850.1 51.4C849.7 51.3 849.2 51.3 849 51.5 848.5 51.8 848.4 52.3 848.3 52.7 848.2 53.6 848.7 54.4 849.6 54.5L859.6 56.4 866.4 65.7 843.4 61.8C843 61.7 842.7 61.9 842.2 62.3 841.9 62.4 841.7 62.6 841.6 63.1 841.4 64 842.2 65 843.1 65.2L869.2 69.6 873.5 75.6 867 90.1 859.5 91.2 838.9 74.1C838.2 73.8 837.3 73.6 836.8 74 836.6 74.2 836.6 74.2 836.8 74.4 836 75 836 76.2 836.8 76.8L854.9 91.4 843.2 92.7 835.3 86.1C834.7 85.8 834 85.9 833.4 86.3 833.4 86.3 833.2 86.5 833.2 86.5 832.4 87 832.4 88.2 833.3 88.8L838.8 93.1 830.3 94C829.9 94 829.6 94.1 829.4 94.3 828.9 94.7 828.5 95.3 828.7 95.6 828.8 96.8 829.6 97.3 830.5 97.5L838.9 96.6 834.6 101.6C834 102.4 834.1 103.6 834.9 104.2 835.5 104.5 836.7 104.5 837 103.8L843.6 96 855 94.8 840.3 112.9C839.8 113.7 840.1 114.6 840.6 115.4 841.2 115.8 842.4 115.7 843 114.9ZM878.4 103.2L871.1 93.1 870 91.6 870.7 89.8 875.7 78.7 876.7 76.8 878.6 76.7 890.7 75.4 892.6 75.3 893.7 76.8 901 87 902.1 88.5 901.3 90.3 896.3 101.4 895.6 103.1 893.5 103.4 881.3 104.6 879.5 104.8 878.4 103.2Z" fill="rgba(235, 245, 255, 0.58)"></path><path d="M959.3 370.4L941.9 380.3 941.5 366.9C941.6 365.4 940.2 363.9 938.2 363.5 936.5 364 935 365.3 934.9 366.8L935 384.5 918.7 393.7 918.8 357.5C918.6 355.2 917.3 353.7 915.5 354.2 913.5 353.8 912 355.2 912.2 357.5L912.2 397.3 897.7 405.9 863.8 386.5 863.5 371.6 900.5 350.8C900.8 350.2 901.2 349.7 901.5 349.1 901.8 348.6 901.9 347.1 901.6 346.3 900.6 344.2 898.6 343.8 897.1 345.1L863.4 364.2 863.5 345.8 880.5 335.6C881 335.9 881.3 335.4 881.7 334.8 882.3 333.7 882.4 332.3 881.6 331.1 880.8 329.9 878.8 329.5 877.1 330L863.4 338.4 863.3 315.4C863.3 314 862 312.5 860 312.1 858.3 312.6 856.7 313.9 856.7 315.3L856.9 336.8 845.2 330.2C843.6 329.2 841.5 330.2 840.9 331.4 839.9 333 840.1 335.3 841.7 336.3L856.7 344.9 856.5 363.2 825.4 345.4C823.8 344.4 822 344.9 821.1 346.6 820.1 348.2 820.6 350 822.3 350.9L856.7 370.7 857.2 386.5 823.2 406 810.4 398.7 810.1 358C810.5 356 808.6 354.2 806.9 354.7 804.9 354.3 803.9 355.9 803.5 357.9L803.7 394.9 787.6 385.7 787.8 367.3C787.9 365.9 786 364.1 784.5 364S781.3 365.8 780.9 367.8L780.9 381.9 761.5 370.7C759.8 369.8 757.8 370.8 756.8 372.5 756.2 373.6 756.3 375.9 758 376.8L777.4 388 765 395.6C763.8 396.4 762.8 398 763.9 400.1 764.7 401.3 767.2 402 768.4 401.2L784.1 391.8 800.2 401 768.2 419.6C766.7 420.9 765.7 422.6 766.8 424.6 767.6 425.8 770.1 426.5 771.3 425.7L806.9 404.8 819.7 412.1 820 451.4 806.1 459 771.7 439.2C770 438.3 768.3 438.8 767.3 440.4 766.4 442.1 766.5 444.4 768.2 445.4L799.3 463.2 783.6 472.6 768.6 464C766.9 463.1 765.2 463.5 764.2 465.2 763.2 466.9 763.7 468.6 765.4 469.6L777 476.2 758.4 486.9C757.2 487.7 756.5 490.3 757.3 491.5 758.6 493 760.3 493.9 761.8 492.6L781.3 481.6 781.3 497.1C781.8 498.9 783.1 500.4 784.6 500.5 786 500.5 787.2 499.7 787.8 498.6 787.8 498.6 788.1 498.1 787.9 497.2L788.2 477.4 803.9 468 804.6 506.8C804.2 508.7 805.5 510.2 807.8 510.1 808.7 509.9 809.6 509.6 810.2 508.5 810.5 507.9 810.8 507.4 811.2 506.8L810.4 464.4 823.4 457.1 857.3 476.5 857.2 493.4 822.8 513.5C820.8 514.5 820.4 516.5 821.7 518 822.2 519.8 824.2 520.2 826.2 519.2L857.4 500.8 857.7 519.5 842.3 528.4C841.1 529.2 840.7 531.2 841.2 532.9 842.6 534.4 844.2 535.4 845.7 534L857.6 527.5 857.9 547.6C857.5 549.6 859.1 550.5 861.1 550.9 862 550.7 863.2 549.9 863.8 548.8 863.8 548.8 864.1 548.2 864.5 547.7L864.2 526.2 878.1 534.1C879.2 534.8 881.5 534.6 882.5 532.9 883.4 531.3 882.4 529.2 881.3 528.6L864.1 518.7 863.7 500.1 897.6 519.5C899.3 520.4 901.3 519.4 902.3 517.7S902.8 514.3 901.1 513.4L863.9 492 863.9 476.6 898 457 912.4 465.3 912.4 506.5C912.8 508.3 914.2 509.8 916.2 510.2 917 510 918.2 509.2 918.9 508.1 919.2 507.5 919.5 506.9 919.3 506.1L919.1 469.1 935.2 478.3 935.6 497C935.5 498.4 936.8 499.9 938.8 500.3 940.6 499.8 942.1 498.5 942.1 497L941.8 482.1 959.6 492.3C960.7 492.9 963.3 492.2 964 491.1 964.9 489.4 964.2 486.8 963.1 486.2L945.3 476 958 469.3C958.4 468.7 958.7 468.2 959 467.6 959.6 466.5 959.7 465.1 959.5 464.2 958.1 462.7 956.1 462.3 954.4 462.8L938.7 472.2 922.6 463 954.6 444.4C956.6 443.4 957 441.4 956.2 440.2 955.2 438.2 953.2 437.8 951.5 438.2L915.9 459.1 901.5 450.9 901.1 411.6 914.4 403.7 951.7 425C953.3 426 955.1 425.5 956 423.9 957 422.2 956.5 420.4 954.8 419.5L921 400.1 937.2 391 954.5 400.8C955.6 401.5 958.2 400.8 959.1 399.1 960.1 397.4 959.1 395.4 958 394.7L944.1 386.8 962.7 376.1C963.1 375.5 963.1 375.5 963.4 375 964 373.9 964.1 372.4 963.9 371.6 962.5 370 960.5 369.6 959.3 370.4ZM894.8 447.1L894.6 451.3 891.3 453.2 863.7 469.1 860.5 470.9 857.2 469 829.9 453.4 826.6 451.5 826.5 447.8 826.3 416 826.2 412.2 829.8 409.8 857.1 394.5 860.6 392.1 864 394 891.2 409.6 894.5 411.5 894.3 415.8 894.8 447.1Z" fill="rgba(235, 245, 255, 0.58)"></path><path d="M184.5 168.1L165.8 186.9 158.5 187.1 150.3 173 153.9 166.5 179.5 159.6C179.8 159.4 179.8 159.4 180.1 159.3 180.6 158.9 181 158.3 180.8 157.3 180.3 156.5 179.7 156.1 178.7 156.3L156.3 162.4 162 152.4 171.8 149.6C171.8 149.6 172.1 149.5 172.1 149.5 172.6 149.1 173 148.5 172.8 147.5 172.8 146.8 171.7 146.3 170.8 146.5L164.3 148.1 168.5 140.8C168.9 140.2 168.7 139.2 167.9 138.6S166.1 138.5 165.4 139.3L161.4 146.4 159.6 140.1C159.4 139.1 158.3 138.6 157.3 138.8 156.8 139.2 156.1 139.9 156.3 140.9L159.1 150.8 153.2 160.9 147.1 138.5C146.9 137.5 145.9 137 145.2 137.1 144.3 137.5 143.7 138.3 143.9 139.3L151 164.8 147.2 171.5 131.3 171.5 127.4 164.9 133.8 139.2C134.1 138.4 133.6 137.5 132.7 137.3S131 137.6 130.8 138.4L125.1 161.1 119.1 150.8 121.6 141.2C121.9 140.3 121.4 139.5 120.3 139S118.6 139.3 118.4 140.1L116.9 147 112.5 139.5C112 138.7 110.8 138.6 110 139.1 109.2 139.6 109 140.5 109.4 141.3L113.8 148.8 107.2 147C106.2 146.5 105.4 147 105.3 148.2 105.1 149.1 105.6 149.9 106.4 150.1L116.1 152.6 122.1 162.8 99.6 156.7C98.7 156.5 97.6 157.2 97.4 158S97.6 159.7 98.5 160L124.3 166.7 128.2 173.3 120.1 187.3 112.7 187.3 93.9 168.6C93.2 167.9 92.2 168.1 91.3 168.6 90.7 169.4 90.9 170.4 91.4 171.2L107.9 187.4 96.5 187.5 89.2 180.2C88.5 179.6 87.5 179.8 86.7 180.3 86.3 180.9 86.2 182 87 182.7L91.6 187.4 83.1 187.5C82.4 187.6 81.7 188.3 81.5 189.2 81.7 190.2 82.5 190.9 83.2 190.8L91.7 190.7 86.8 195.7C86.4 196.3 86.4 197.5 87 197.9 87.5 198.7 88.2 198.7 89 198.2 89 198.2 89.3 198 89.3 198L96.5 190.8 108 190.7 91.8 207.3C91.1 208.1 90.9 208.9 91.6 209.6 92.4 210.3 93.1 210.2 93.7 209.9 93.9 209.7 93.9 209.7 93.9 209.7L112.7 190.6 120.2 190.6 128.5 204.7 124.7 211 98.9 218.3C98.2 218.4 97.7 219.4 97.8 220.1 98 221.1 99 221.6 100 221.4L122.4 215.3 116.8 225.3 106.9 228.1C105.9 228.3 105.3 229.1 105.7 229.9 106 230.9 107 231.4 107.7 231.3L114.3 229.3 110.1 236.6C109.8 237.5 110 238.5 110.8 239.2 111.2 239.3 112 239.2 112.5 238.9 112.8 238.8 112.8 238.8 112.9 238.3L117.2 231 119.2 237.6C119.4 238.6 120.3 238.8 121 238.8 121.2 238.6 121.2 238.6 121.5 238.5 122.1 238.1 122.5 237.5 122.4 236.8L119.6 227 125.3 217 131.3 239.4C131.8 240.2 132.6 240.9 133.4 240.4 133.8 240.5 133.8 240.5 134.1 240.3 134.7 240 134.9 239.1 134.9 238.4L127.5 212.7 131.3 206.4 147.5 206.2 151.2 212.5 144.5 238.4C144.2 239.2 144.9 240.3 145.8 240.6S147.7 240.2 148 239.3L153.6 216.7 159.5 226.6 157.1 236.5C156.9 237.4 157.4 238.2 158.2 238.4 159.1 238.7 159.9 238.2 160.2 237.3L161.9 230.7 166.3 238.2C166.6 238.8 167.6 239.3 168.4 238.8 169.3 238.3 169.6 237 169.3 236.4L164.9 229 171.5 230.7C171.9 230.8 172.4 230.9 172.6 230.7 173.2 230.4 173.3 230 173.4 229.5 173.6 228.7 173.2 227.8 172.3 227.6L162.5 224.8 156.7 214.9 179.2 221C179.6 221.1 179.9 220.9 180.4 220.6 180.7 220.5 181 220.3 181.1 219.9 181.3 219 180.7 217.9 179.8 217.6L154.2 210.7 150.5 204.4 158.3 190.5 165.9 190.2 184.8 209.1C185.4 209.5 186.3 209.8 186.9 209.4 187.1 209.3 187.1 209.3 187 209 187.8 208.5 187.9 207.4 187.1 206.7L170.5 190.4 182.3 190.2 189.5 197.5C190.1 197.9 190.8 197.8 191.4 197.5 191.4 197.5 191.6 197.4 191.6 197.4 192.5 196.9 192.5 195.7 191.8 195.1L186.7 190.2 195.2 190.1C195.6 190.2 195.9 190 196.2 189.9 196.7 189.6 197.1 189 196.9 188.7 197 187.5 196.2 186.9 195.4 186.6L186.9 186.8 191.6 182.2C192.3 181.4 192.4 180.2 191.6 179.6 191 179.2 189.9 179.1 189.5 179.7L182.2 186.9 170.7 187 187 170.4C187.6 169.7 187.4 168.7 186.9 167.8 186.3 167.4 185.2 167.4 184.5 168.1ZM148.2 176.4L154.5 187.2 155.5 188.9 154.6 190.5 148.6 201.1 147.4 202.9 145.5 202.9 133.4 203 131.5 202.9 130.5 201.3 124.2 190.5 123.2 188.9 124.1 187.2 130.2 176.6 131.1 175 133.2 174.9 145.4 174.8 147.3 174.8 148.2 176.4Z" fill="rgba(235, 245, 255, 0.58)"></path><path d="M1313.5 412.7L1326.8 417.1 1320.8 423C1320.1 423.5 1320 424.8 1320.6 425.9 1321.6 426.5 1322.9 426.6 1323.5 425.6L1331.3 418.5 1341.8 421.4 1325.5 436.2C1324.9 437.2 1324.8 438.5 1325.3 439.2 1326.4 440.1 1327.6 440.3 1328.2 439.3L1346.2 422.9 1362.1 427.8 1346.7 439.2 1365.5 442.6 1353.4 454.1 1330 447.1C1329.9 446.7 1329.6 446.8 1329.2 446.9 1328.4 447.1 1327.7 447.6 1327.5 448.5 1327.3 449.4 1327.9 450.5 1328.9 451.1L1350 457.3 1341.8 464.5 1331.7 461.5C1331.2 461.2 1330.8 461.3 1330.4 461.4 1330 461.5 1329.4 462 1329.1 462.9 1328.9 463.8 1329.6 464.8 1330.5 465.1L1338.5 467.7 1328.4 477.4C1327.3 478.1 1327.6 479.3 1328.2 480.3 1328.8 481 1330.1 481.2 1331 480.1L1341.2 470.8 1343.1 479C1343.4 480.2 1344.7 480.7 1345.5 480.5 1346.7 480.2 1347.3 479.3 1347 478.1L1344.6 467.6 1352.8 460.3 1357.6 481.4C1357.9 482.6 1358.8 483.2 1360 482.9 1360.8 482.7 1361.8 481.7 1361.5 480.5L1356.1 457.1 1368.3 445.7 1370.5 464.5 1382.9 450.2 1386.6 466.5 1369 482.9C1368 483.9 1368.3 485.1 1368.9 485.8 1369.4 486.5 1370.7 486.6 1371.8 485.9L1387.6 470.8 1390 481.3 1382.3 488.9C1381.2 489.5 1381.1 490.8 1382.1 491.8 1382.7 492.5 1384 492.6 1385 491.5L1391.1 486 1394.2 499.7C1394.5 500.8 1395.4 501.4 1396.6 501.2S1398.4 499.9 1398.1 498.8L1395 485.1 1402.9 487.4C1404.2 487.9 1405.3 487.3 1405.5 486.4 1406.1 485.1 1405.4 484 1404.1 483.9L1393.9 480.5 1391.5 469.9 1412.3 476.6C1413.6 476.8 1414.7 476.1 1414.9 475.2 1415.4 473.9 1414.7 472.8 1413.5 472.7L1390.5 465.6 1386.8 449.3 1404.1 456.8 1397.9 438.9 1413.8 443.9 1419.2 467.3C1419.5 468.4 1420.8 468.9 1421.6 468.8 1422.8 468.5 1423.4 467.5 1423.1 466.4L1418.2 444.9 1428.8 448.2 1431.2 458.8C1431.5 459.9 1432.4 460.5 1433.6 460.3 1434.4 460.1 1435.4 459 1435.1 457.9L1433.2 449.7 1446.4 453.6C1447.8 454.1 1448.9 453.5 1449 452.2 1449.2 451.3 1448.9 450.2 1447.7 450.1L1434.4 445.7 1440.4 439.8C1441.1 439.3 1441.2 438 1440.6 437.3 1440.1 436.6 1439.2 436.4 1438.8 436.5 1438.4 436.6 1438 436.7 1437.7 437.1L1429.9 444.3 1419.4 441.4 1435.7 426.5C1436.3 425.6 1436.4 424.3 1435.9 423.6 1435.3 422.9 1434.4 422.7 1433.6 422.9 1433.3 423 1433.3 423 1433 423.5L1415 439.9 1399.1 434.9 1414.5 423.6 1395.7 420.1 1407.8 408.7 1431.2 415.7C1432 415.9 1433.2 415.6 1433.7 414.3 1433.9 413.4 1433.3 412.3 1432.3 411.7L1411.2 405.5 1419.4 398.3 1429.5 401.3C1430.5 401.9 1431.5 401.2 1432.1 399.9 1432.3 399 1431.6 397.9 1430.6 397.3L1422.7 395 1432.8 385.3C1433.9 384.7 1433.6 383.5 1433 382.4 1432.5 382.1 1431.6 381.9 1431.2 382 1430.8 382.1 1430.5 382.2 1430.2 382.7L1420 392 1418.1 383.8C1417.8 382.6 1416.5 382.1 1415.7 382.3L1415.7 382.3C1414.5 382.6 1413.9 383.5 1414.2 384.7L1416.6 395.2 1408.4 402.4 1403.6 381.4C1403.3 380.2 1402.4 379.6 1401.2 379.9S1399.4 381.1 1399.7 382.3L1405.1 405.7 1392.9 417.1 1390.6 398.3 1378.3 412.6 1374.6 396.2 1392.2 379.9C1393.2 378.8 1392.9 377.7 1392.3 377 1391.8 376.3 1390.5 376.2 1389.4 376.8L1373.5 391.6 1371.2 381.4 1378.9 373.9C1380 373.3 1380.1 372 1379 371 1378.5 370.3 1377.2 370.2 1376.1 370.9L1370.1 376.8 1367 363.1C1366.7 361.9 1365.7 361.3 1364.6 361.6S1362.8 362.8 1363.1 364L1366.2 377.6 1358.3 375.4C1357.8 375.1 1357.4 375.1 1357 375.2 1356.3 375.4 1356 375.9 1355.7 376.4 1355.1 377.7 1355.8 378.8 1357.1 378.9L1367.3 382.3 1369.7 392.9 1348.9 386.1C1348.5 386.2 1348.1 386.3 1347.7 386.4 1346.9 386.6 1346.6 387.1 1346.3 387.5 1345.8 388.9 1346.5 390 1347.7 390.1L1370.7 397.1 1374.4 413.5 1357.1 406 1363.3 423.9 1347.4 418.9 1342 395.5C1341.7 394.3 1340.4 393.8 1339.6 394 1338.4 394.3 1337.8 395.2 1338.1 396.4L1342.9 417.5 1332.4 414.5 1330 404C1329.7 402.8 1328.8 402.2 1327.6 402.5S1325.8 403.7 1326.1 404.9L1328 413.1 1314.8 409.2C1314.3 408.9 1313.9 408.9 1313.5 409 1313.1 409.1 1312.4 409.7 1312.2 410.6 1312 411.4 1312.3 412.6 1313.5 412.7ZM1363.7 413.1L1377.8 419.3 1387.9 407.6 1389.8 423.1 1404.8 425.8 1392.6 435.2 1397.5 449.7 1383.4 443.5 1373.3 455.2 1371.5 440 1356.4 436.9 1368.7 428 1363.7 413.1Z" fill="rgba(235, 245, 255, 0.58)"></path></g><defs><mask id="SvgjsMask1012"><rect width="1440" height="560" fill="#ffffff"></rect></mask><filter id="SvgjsFilter1013"><feGaussianBlur stdDeviation="1"></feGaussianBlur></filter></defs></svg>